<?xml version="1.0" encoding="UTF-8"?>
<svg width="504px" height="1027px" viewBox="0 0 504 1027" version="1.1" xmlns="http://www.w3.org/2000/svg" xmlns:xlink="http://www.w3.org/1999/xlink">
    <!-- Generator: Sketch 64 (93537) - https://sketch.com -->
    <title>zadcall-search-ar</title>
    <desc>Created with Sketch.</desc>
    <defs>
        <linearGradient x1="-0.00519637437%" y1="50.0571802%" x2="99.9576612%" y2="50.0571802%" id="linearGradient-1">
            <stop stop-color="#E6AE53" offset="0%"></stop>
            <stop stop-color="#FFD75E" offset="12%"></stop>
            <stop stop-color="#FFF1D0" offset="24%"></stop>
            <stop stop-color="#FFE8AB" offset="31%"></stop>
            <stop stop-color="#FFD75E" offset="47%"></stop>
            <stop stop-color="#DB9B4D" offset="64%"></stop>
            <stop stop-color="#F2C158" offset="83%"></stop>
            <stop stop-color="#D38E49" offset="100%"></stop>
        </linearGradient>
        <path d="M27.615942,25.4710145 C27.4320234,26.6273045 27.2605316,28.9565217 26.8355304,28.9565217 L26.8355304,28.9565217 L10.9688174,28.9565217 C10.5413308,28.9565217 10.3698391,26.6273045 10.1884058,25.4710145 L10.1884058,25.4710145 Z M18.7630273,8.04347826 C20.8003621,8.04347826 20.8339304,10.5393087 19.4395567,10.862178 C19.4576319,11.6360392 20.0282923,13.3323839 20.26327,14.0652458 C22.1405101,19.9153289 25.4921712,23.4053916 30.5403202,17.1837527 C32.8823515,14.3061165 32.3168555,14.9082933 32.1076994,14.1088075 C32.0198426,13.7359366 32.1119973,13.3437308 32.3569814,13.0478761 C32.6019656,12.7520213 32.9718273,12.5862735 33.3574714,12.599522 C34.9480902,12.599522 35.2631153,15.6078433 32.6809419,15.0133539 L32.6809419,15.0133539 L29.3034591,21.7192967 C29.0994674,22.1267269 28.3687123,23.7282609 27.9529824,23.7282609 L27.9529824,23.7282609 L9.84678252,23.7282609 C9.39748435,23.7282609 9.28386872,23.1337715 9.0721305,22.7468409 C7.6261134,20.1203253 6.48221058,17.5758082 5.1110765,15.0133539 C4.25379493,15.2081004 3.22092557,15.1440391 3.22092557,13.9396855 C3.17281131,13.3008031 3.62100347,12.7299334 4.25702112,12.6199936 C4.89303877,12.5100537 5.50933946,12.8969189 5.68173682,13.5143181 C5.95028286,14.3701779 5.25826039,14.2087432 5.51647773,14.8826687 C5.80826332,15.6693422 9.54725041,20.5200681 12.4082985,20.5200681 C15.9019792,20.5200681 18.3137291,12.4278375 18.3472974,10.8673029 C17.5726453,10.6879311 17.4022219,10.1036915 17.4022219,9.39132921 L17.4022219,9.39132921 L17.4125506,9.38364185 C17.4591048,8.66349323 18.0373368,8.08967698 18.7630273,8.04347826 Z M10.1884058,14.2105981 C10.1884058,12.6751872 13.681596,13.0496236 12.0656114,15.1389346 C12.2756126,15.9276882 13.4536679,17.2105207 13.673913,17.9217284 C13.0413485,18.067958 12.8620792,18.433532 11.9298789,18.5 C11.8274393,17.4187871 11.5303645,16.4860195 11.5303645,15.2541458 C10.8235313,15.203187 10.1884058,14.8752781 10.1884058,14.2105981 Z M26.1276177,13.2717391 C28.2113028,13.2717391 27.9670613,15.1218416 26.2624593,15.2462183 C26.2624593,16.4811006 25.96479,17.4161464 25.8630228,18.5 C24.9394847,18.4333697 24.7588477,18.0669028 24.1304348,17.920316 C24.3492344,17.2073714 25.5195582,15.9147427 25.7281811,15.1307257 C25.3287445,14.5976829 25.3287445,14.7353857 25.3287445,13.9691367 C25.4091986,13.6171312 25.7243932,13.3419736 26.1276177,13.2717391 Z" id="path-2"></path>
        <path d="M27.615942,25.4710145 C27.4320234,26.6273045 27.2605316,28.9565217 26.8355304,28.9565217 L26.8355304,28.9565217 L10.9688174,28.9565217 C10.5413308,28.9565217 10.3698391,26.6273045 10.1884058,25.4710145 L10.1884058,25.4710145 Z M18.7630273,8.04347826 C20.8003621,8.04347826 20.8339304,10.5393087 19.4395567,10.862178 C19.4576319,11.6360392 20.0282923,13.3323839 20.26327,14.0652458 C22.1405101,19.9153289 25.4921712,23.4053916 30.5403202,17.1837527 C32.8823515,14.3061165 32.3168555,14.9082933 32.1076994,14.1088075 C32.0198426,13.7359366 32.1119973,13.3437308 32.3569814,13.0478761 C32.6019656,12.7520213 32.9718273,12.5862735 33.3574714,12.599522 C34.9480902,12.599522 35.2631153,15.6078433 32.6809419,15.0133539 L32.6809419,15.0133539 L29.3034591,21.7192967 C29.0994674,22.1267269 28.3687123,23.7282609 27.9529824,23.7282609 L27.9529824,23.7282609 L9.84678252,23.7282609 C9.39748435,23.7282609 9.28386872,23.1337715 9.0721305,22.7468409 C7.6261134,20.1203253 6.48221058,17.5758082 5.1110765,15.0133539 C4.25379493,15.2081004 3.22092557,15.1440391 3.22092557,13.9396855 C3.17281131,13.3008031 3.62100347,12.7299334 4.25702112,12.6199936 C4.89303877,12.5100537 5.50933946,12.8969189 5.68173682,13.5143181 C5.95028286,14.3701779 5.25826039,14.2087432 5.51647773,14.8826687 C5.80826332,15.6693422 9.54725041,20.5200681 12.4082985,20.5200681 C15.9019792,20.5200681 18.3137291,12.4278375 18.3472974,10.8673029 C17.5726453,10.6879311 17.4022219,10.1036915 17.4022219,9.39132921 L17.4022219,9.39132921 L17.4125506,9.38364185 C17.4591048,8.66349323 18.0373368,8.08967698 18.7630273,8.04347826 Z M10.1884058,14.2105981 C10.1884058,12.6751872 13.681596,13.0496236 12.0656114,15.1389346 C12.2756126,15.9276882 13.4536679,17.2105207 13.673913,17.9217284 C13.0413485,18.067958 12.8620792,18.433532 11.9298789,18.5 C11.8274393,17.4187871 11.5303645,16.4860195 11.5303645,15.2541458 C10.8235313,15.203187 10.1884058,14.8752781 10.1884058,14.2105981 Z M26.1276177,13.2717391 C28.2113028,13.2717391 27.9670613,15.1218416 26.2624593,15.2462183 C26.2624593,16.4811006 25.96479,17.4161464 25.8630228,18.5 C24.9394847,18.4333697 24.7588477,18.0669028 24.1304348,17.920316 C24.3492344,17.2073714 25.5195582,15.9147427 25.7281811,15.1307257 C25.3287445,14.5976829 25.3287445,14.7353857 25.3287445,13.9691367 C25.4091986,13.6171312 25.7243932,13.3419736 26.1276177,13.2717391 Z" id="path-3"></path>
    </defs>
    <g id="Page-1" stroke="none" stroke-width="1" fill="none" fill-rule="evenodd">
        <g id="zadcall-search-ar" transform="translate(2.000000, 2.000000)">
            <path d="M417.78,0 L81.92,0 C36.6768333,0 -8.52651283e-14,36.6768333 -8.52651283e-14,81.92 L-8.52651283e-14,940.76 C-8.52651283e-14,962.486535 8.63083236,983.323207 23.9938125,998.686188 C39.3567926,1014.04917 60.1934652,1022.68 81.92,1022.68 L417.78,1022.68 C463.023167,1022.68 499.7,986.003167 499.7,940.76 L499.7,81.92 C499.7,36.6768333 463.023167,0 417.78,0 L417.78,0 Z M472.66,508 L472.66,935.66 C472.66,950.668601 466.697856,965.062489 456.085173,975.675173 C445.472489,986.287856 431.078601,992.25 416.07,992.25 L83.63,992.25 C52.376206,992.25 27.04,966.913794 27.04,935.66 L27.04,87.05 C27.04,55.796206 52.376206,30.46 83.63,30.46 L138.72,30.46 L138.72,47.89 C138.72,52.0592032 140.37621,56.0576467 143.324281,59.0057186 C146.272353,61.9537905 150.270797,63.61 154.44,63.61 L345.22,63.61 C349.389203,63.61 353.387647,61.9537905 356.335719,59.0057186 C359.28379,56.0576467 360.94,52.0592032 360.94,47.89 L360.94,30.46 L416.03,30.46 C431.038601,30.46 445.432489,36.4221436 456.045173,47.0348273 C466.657856,57.6475109 472.62,72.0413988 472.62,87.05 L472.66,508 Z" id="Shape" stroke="#30414B" stroke-width="3.5" fill-rule="nonzero"></path>
            <path d="M375.56962,118 L379.556962,112.037975 L379.556962,88 L375.56962,93.3734177 L375.56962,118 Z M367.917722,116.101266 L368.886076,115.512658 L368.886076,96.943038 L370.367089,93.7911392 L368.582278,91.9113924 L368.088608,88 L364.139241,91.2468354 L364.898734,95.2531646 L364.898734,110.082278 L356.088608,110.082278 L356.088608,116.101266 L367.917722,116.101266 Z M357.227848,116.101266 L357.227848,110.082278 L355.746835,110.082278 C355.746835,108.955696 355.401899,107.186709 354.712025,104.775316 C354.022152,102.363924 353.101266,100.512658 351.949367,99.221519 L351.949367,99.221519 L348.56962,104.101266 C349.151899,104.582278 349.803797,105.496835 350.525316,106.844937 C351.246835,108.193038 351.607595,109.037975 351.607595,109.379747 C351.607595,109.848101 351.468354,110.082278 351.189873,110.082278 L351.189873,110.082278 L338.734177,110.082278 L338.734177,116.101266 L357.227848,116.101266 Z M349.689873,126.620253 L351.721519,122.120253 L346.177215,119.898734 L344.259494,124.341772 L349.689873,126.620253 Z M339.873418,116.101266 L339.873418,110.082278 L338.71519,110.082278 C336.892405,109.487342 335.367089,108.731013 334.139241,107.813291 C332.911392,106.89557 331.658228,105.835443 330.379747,104.632911 C327.050633,101.620253 324.025316,100.113924 321.303797,100.113924 C318.708861,100.113924 316.85443,100.759494 315.740506,102.050633 C315.310127,102.468354 314.575949,103.575949 313.537975,105.373418 C316.044304,104.474684 317.898734,104.025316 319.101266,104.025316 C320.64557,104.025316 322.094937,104.493671 323.449367,105.43038 C324.727848,106.303797 325.920886,107.265823 327.028481,108.316456 C328.136076,109.367089 328.689873,109.968354 328.689873,110.120253 L328.689873,110.120253 L307.120253,110.082278 L307.120253,116.101266 L339.873418,116.101266 Z M291.626582,95.1202532 L293.35443,92.1012658 L289.405063,89.7848101 L287.563291,92.7468354 L291.626582,95.1202532 Z M296.601266,100.64557 L298.481013,97.5886076 L294.189873,95.0632911 L292.310127,98.0443038 L296.601266,100.64557 Z M290.43038,101.044304 L292.310127,98.0443038 L287.905063,95.3670886 L285.987342,98.4240506 L290.43038,101.044304 Z M287.050633,118.493671 C289.050633,118.493671 292.053797,118.272152 296.060127,117.829114 C300.066456,117.386076 303.424051,116.810127 306.132911,116.101266 L306.132911,116.101266 L308.259494,116.101266 L308.259494,110.082278 L307.044304,110.082278 C307.044304,107.689873 306.724684,105.756329 306.085443,104.281646 C305.446203,102.806962 304.575949,101.727848 303.474684,101.044304 L303.474684,101.044304 L299.867089,105.392405 C302.310127,107.56962 303.531646,109.537975 303.531646,111.297468 C303.531646,111.411392 301.863924,111.689873 298.528481,112.132911 C295.193038,112.575949 291.987342,112.797468 288.911392,112.797468 C286.278481,112.746835 284.003165,112.240506 282.085443,111.278481 C280.167722,110.316456 279.208861,108.778481 279.208861,106.664557 C279.208861,105.955696 279.56962,104.424051 280.291139,102.06962 C277.56962,105.132911 276.208861,108.044304 276.208861,110.803797 C276.208861,113.310127 277.199367,115.218354 279.18038,116.528481 C281.161392,117.838608 283.78481,118.493671 287.050633,118.493671 Z M243.911392,116.101266 L259.405063,114.468354 L262.310127,108.696203 L254.468354,109.683544 C254.151899,109.582278 253.525316,109.199367 252.588608,108.53481 C251.651899,107.870253 250.905063,107.303797 250.348101,106.835443 C249.791139,106.35443 249.193038,105.642405 248.553797,104.699367 C247.914557,103.756329 247.594937,103.151899 247.594937,102.886076 L247.594937,102.886076 L247.613924,102.772152 C249.588608,101.848101 251.613924,101.392405 253.689873,101.405063 C254.791139,101.405063 255.810127,101.718354 256.746835,102.344937 C257.683544,102.971519 258.240506,103.392405 258.417722,103.607595 C258.21519,102.075949 257.389241,100.550633 255.939873,99.0316456 C254.490506,97.5126582 253.050633,96.7531646 251.620253,96.7531646 C249.873418,96.7531646 247.993671,97.7183544 245.981013,99.6487342 C243.968354,101.579114 242.962025,103.310127 242.962025,104.841772 C242.962025,105.753165 243.841772,107.5 245.601266,110.082278 L245.601266,110.082278 L238.613924,110.082278 L238.613924,116.101266 L243.911392,116.101266 Z M228.873418,98.1392405 L230.905063,93.6392405 L225.360759,91.4177215 L223.443038,95.8607595 L228.873418,98.1392405 Z M222.968354,125.993671 C226.955696,125.955696 231.170886,124.462025 235.613924,121.512658 C236.892405,120.550633 237.734177,118.746835 238.139241,116.101266 L238.139241,116.101266 L239.753165,116.101266 L239.753165,110.082278 L238.367089,110.082278 C238.151899,106.550633 237.310127,103.835443 235.841772,101.936709 L235.841772,101.936709 L232.613924,106.740506 C232.943038,107.132911 233.373418,108.006329 233.905063,109.360759 C234.436709,110.71519 234.794304,111.905063 234.977848,112.93038 C235.161392,113.955696 235.253165,114.759494 235.253165,115.341772 C235.253165,115.987342 235.202532,116.563291 235.101266,117.06962 C234.962025,117.386076 234.151899,117.841772 232.670886,118.436709 C229.037975,119.803797 225.968354,120.487342 223.462025,120.487342 C221.082278,120.487342 219.363924,119.892405 218.306962,118.702532 C217.25,117.512658 216.734177,115.968354 216.759494,114.06962 C216.734177,112.727848 217.199367,110.876582 218.155063,108.515823 C219.110759,106.155063 219.772152,104.64557 220.139241,103.987342 C219.594937,104.164557 218.863924,104.876582 217.946203,106.123418 C217.028481,107.370253 216.268987,108.901899 215.667722,110.718354 C215.066456,112.53481 214.765823,114.506329 214.765823,116.632911 C214.765823,118.556962 214.908228,120.123418 215.193038,121.332278 C215.477848,122.541139 215.943038,123.493671 216.588608,124.189873 C217.234177,124.886076 218.079114,125.360759 219.123418,125.613924 C220.167722,125.867089 221.449367,125.993671 222.968354,125.993671 Z M187.462025,96.3164557 L189.493671,91.8164557 L183.949367,89.5949367 L182.031646,94.0379747 L187.462025,96.3164557 Z M201.607595,116.101266 L201.607595,109.987342 C199.721519,109.455696 198.164557,108.731013 196.936709,107.813291 C195.708861,106.89557 194.455696,105.835443 193.177215,104.632911 C189.848101,101.620253 186.822785,100.113924 184.101266,100.113924 C181.506329,100.113924 179.651899,100.759494 178.537975,102.050633 C178.107595,102.468354 177.373418,103.575949 176.335443,105.373418 C178.841772,104.474684 180.696203,104.025316 181.898734,104.025316 C183.443038,104.025316 184.892405,104.493671 186.246835,105.43038 C187.525316,106.303797 188.718354,107.265823 189.825949,108.316456 C190.933544,109.367089 191.487342,109.968354 191.487342,110.120253 L191.487342,110.120253 L169.917722,110.082278 L169.917722,116.101266 L201.607595,116.101266 Z M171.056962,116.101266 L171.056962,110.082278 L169.575949,110.082278 C169.575949,108.955696 169.231013,107.186709 168.541139,104.775316 C167.851266,102.363924 166.93038,100.512658 165.778481,99.221519 L165.778481,99.221519 L162.398734,104.101266 C162.981013,104.582278 163.632911,105.496835 164.35443,106.844937 C165.075949,108.193038 165.436709,109.037975 165.436709,109.379747 C165.436709,109.848101 165.297468,110.082278 165.018987,110.082278 L165.018987,110.082278 L152.563291,110.082278 L152.563291,116.101266 L171.056962,116.101266 Z M163.518987,126.620253 L165.550633,122.120253 L160.006329,119.898734 L158.088608,124.341772 L163.518987,126.620253 Z M153.702532,116.101266 L153.702532,110.082278 L152.221519,110.082278 C152.221519,108.955696 151.876582,107.186709 151.186709,104.775316 C150.496835,102.363924 149.575949,100.512658 148.424051,99.221519 L148.424051,99.221519 L145.044304,104.101266 C145.626582,104.582278 146.278481,105.496835 147,106.844937 C147.721519,108.193038 148.082278,109.037975 148.082278,109.379747 C148.082278,109.848101 147.943038,110.082278 147.664557,110.082278 L147.664557,110.082278 L135.208861,110.082278 L135.208861,116.101266 L153.702532,116.101266 Z M147.892405,126.164557 L150.56962,123.012658 L146.905063,119.898734 L144.493671,122.860759 L141.018987,119.936709 L138.360759,123.107595 L141.968354,126.164557 L144.379747,123.259494 L147.892405,126.164557 Z M124.670886,127.968354 C127.189873,127.968354 129.727848,126.221519 132.28481,122.727848 C133.867089,120.322785 134.78481,118.113924 135.037975,116.101266 L135.037975,116.101266 L136.348101,116.101266 L136.348101,110.082278 L134.696203,110.082278 C134.544304,109.5 134.335443,108.955696 134.06962,108.449367 C133.651899,107.613924 133.132911,106.879747 132.512658,106.246835 C131.892405,105.613924 131.196203,104.917722 130.424051,104.158228 L130.424051,104.158228 L127.841772,109.626582 C130.892405,112.310127 132.43038,114.417722 132.455696,115.949367 C132.455696,116.64557 131.541139,117.822785 129.712025,119.481013 C127.882911,121.139241 125.702532,122.031646 123.170886,122.158228 C121.841772,122.170886 120.544304,121.927215 119.278481,121.427215 C118.012658,120.927215 117.031646,120.487342 116.335443,120.107595 L116.335443,120.107595 L115.310127,119.481013 C115.968354,121.405063 117.218354,123.300633 119.060127,125.167722 C120.901899,127.03481 122.772152,127.968354 124.670886,127.968354 Z" id="البحثعنخبير" fill="#30414B" fill-rule="nonzero"></path>
            <g id="search" transform="translate(75.000000, 154.000000)">
                <path d="M21.7930242,-8.80464262e-16 L248.206976,8.80464262e-16 C255.784885,-5.11575092e-16 258.532818,0.789017695 261.303188,2.27062798 C264.073559,3.75223827 266.247762,5.92644115 267.729372,8.69681152 C269.210982,11.4671819 270,14.2151149 270,21.7930242 L270,38.2069758 C270,45.7848851 269.210982,48.5328181 267.729372,51.3031885 C266.247762,54.0735589 264.073559,56.2477617 261.303188,57.729372 C258.532818,59.2109823 255.784885,60 248.206976,60 L21.7930242,60 C14.2151149,60 11.4671819,59.2109823 8.69681152,57.729372 C5.92644115,56.2477617 3.75223827,54.0735589 2.27062798,51.3031885 C0.789017695,48.5328181 3.41050061e-16,45.7848851 -5.86976174e-16,38.2069758 L5.86976174e-16,21.7930242 C-3.41050061e-16,14.2151149 0.789017695,11.4671819 2.27062798,8.69681152 C3.75223827,5.92644115 5.92644115,3.75223827 8.69681152,2.27062798 C11.4671819,0.789017695 14.2151149,5.11575092e-16 21.7930242,-8.80464262e-16 Z" id="Rectangle" fill="#30414B"></path>
                <path d="M310.793024,-8.80464262e-16 L327.206976,8.80464262e-16 C334.784885,-5.11575092e-16 337.532818,0.789017695 340.303188,2.27062798 C343.073559,3.75223827 345.247762,5.92644115 346.729372,8.69681152 C348.210982,11.4671819 349,14.2151149 349,21.7930242 L349,38.2069758 C349,45.7848851 348.210982,48.5328181 346.729372,51.3031885 C345.247762,54.0735589 343.073559,56.2477617 340.303188,57.729372 C337.532818,59.2109823 334.784885,60 327.206976,60 L310.793024,60 C303.215115,60 300.467182,59.2109823 297.696812,57.729372 C294.926441,56.2477617 292.752238,54.0735589 291.270628,51.3031885 C289.789018,48.5328181 289,45.7848851 289,38.2069758 L289,21.7930242 C289,14.2151149 289.789018,11.4671819 291.270628,8.69681152 C292.752238,5.92644115 294.926441,3.75223827 297.696812,2.27062798 C300.467182,0.789017695 303.215115,5.11575092e-16 310.793024,-8.80464262e-16 Z" id="Rectangle" fill="#4F008C"></path>
                <path d="M332.561198,40.4315029 L327.461928,35.3472306 C329.107169,33.2512128 329.999879,30.6628837 329.996565,27.9982826 C329.996565,21.3718141 324.624751,16 317.998283,16 C311.371814,16 306,21.3718141 306,27.9982826 C306,34.624751 311.371814,39.9965651 317.998283,39.9965651 C320.662884,39.9998787 323.251213,39.1071693 325.347231,37.4619279 L330.431503,42.561198 C330.713112,42.8451264 331.096451,43.004832 331.49635,43.004832 C331.89625,43.004832 332.279588,42.8451264 332.561198,42.561198 C332.845126,42.2795884 333.004832,41.8962495 333.004832,41.4963504 C333.004832,41.0964514 332.845126,40.7131125 332.561198,40.4315029 Z M308.999571,27.9982826 C308.999571,23.0284312 313.028431,18.9995706 317.998283,18.9995706 C322.968134,18.9995706 326.996994,23.0284312 326.996994,27.9982826 C326.996994,32.9681339 322.968134,36.9969945 317.998283,36.9969945 C313.028431,36.9969945 308.999571,32.9681339 308.999571,27.9982826 Z" id="Shape" stroke="#FFFFFF" stroke-width="2" fill="#FFFFFF" fill-rule="nonzero" transform="translate(319.502416, 29.502416) scale(-1, 1) translate(-319.502416, -29.502416) "></path>
            </g>
            <g id="Group" transform="translate(65.000000, 248.000000)">
                <circle id="Oval" fill="#30414B" cx="61.5" cy="61.5" r="50.5"></circle>
                <circle id="Oval" stroke="#30414B" stroke-width="3" cx="61.5" cy="61.5" r="61.5"></circle>
                <path d="M63.5007408,37 C57.7014041,37 53,42.3726542 53,49 C53,55.6273458 57.7014041,61 63.5007408,61 C69.3000776,61 74,55.6273458 74,49 C74,42.3726542 69.3000776,37 63.5007408,37 Z M41,82 C41,70.4028082 51.0728498,61 63.5,61 C75.9271502,61 86,70.4028082 86,82" id="Stroke-1" stroke="#FFFFFF" stroke-width="4" stroke-linecap="round" stroke-linejoin="round"></path>
                <path d="M148.12777,31 L289.87223,31 C291.655267,31 292.30184,31.1856512 292.953691,31.5342654 C293.605543,31.8828796 294.11712,32.3944567 294.465735,33.0463086 C294.814349,33.6981604 295,34.3447329 295,36.1277704 L295,38.8722296 C295,40.6552671 294.814349,41.3018396 294.465735,41.9536914 C294.11712,42.6055433 293.605543,43.1171204 292.953691,43.4657346 C292.30184,43.8143488 291.655267,44 289.87223,44 L148.12777,44 C146.344733,44 145.69816,43.8143488 145.046309,43.4657346 C144.394457,43.1171204 143.88288,42.6055433 143.534265,41.9536914 C143.185651,41.3018396 143,40.6552671 143,38.8722296 L143,36.1277704 C143,34.3447329 143.185651,33.6981604 143.534265,33.0463086 C143.88288,32.3944567 144.394457,31.8828796 145.046309,31.5342654 C145.69816,31.1856512 146.344733,31 148.12777,31 Z" id="Rectangle" fill="#30414B"></path>
                <path d="M148.12777,54 L211.87223,54 C213.655267,54 214.30184,54.1856512 214.953691,54.5342654 C215.605543,54.8828796 216.11712,55.3944567 216.465735,56.0463086 C216.814349,56.6981604 217,57.3447329 217,59.1277704 L217,61.8722296 C217,63.6552671 216.814349,64.3018396 216.465735,64.9536914 C216.11712,65.6055433 215.605543,66.1171204 214.953691,66.4657346 C214.30184,66.8143488 213.655267,67 211.87223,67 L148.12777,67 C146.344733,67 145.69816,66.8143488 145.046309,66.4657346 C144.394457,66.1171204 143.88288,65.6055433 143.534265,64.9536914 C143.185651,64.3018396 143,63.6552671 143,61.8722296 L143,59.1277704 C143,57.3447329 143.185651,56.6981604 143.534265,56.0463086 C143.88288,55.3944567 144.394457,54.8828796 145.046309,54.5342654 C145.69816,54.1856512 146.344733,54 148.12777,54 Z" id="Rectangle" fill="#30414B"></path>
            </g>
            <g id="Group" transform="translate(66.000000, 394.000000)">
                <circle id="Oval" fill="#4F008C" cx="60.5" cy="60.5" r="50.5"></circle>
                <circle id="Oval" stroke="#4F008C" stroke-width="3" cx="61.5" cy="61.5" r="61.5"></circle>
                <path d="M60.7016441,38 C54.8209391,38 50.0535714,43.3066952 50.0535714,49.8526786 C50.0535714,56.3986619 54.8209391,61.7053571 60.7016441,61.7053571 C66.5823491,61.7053571 71.3482143,56.3986619 71.3482143,49.8526786 C71.3482143,43.3066952 66.5823491,38 60.7016441,38 Z M38,83 C38,71.2400925 48.0728498,61.7053571 60.5,61.7053571 C72.9271502,61.7053571 83,71.2400925 83,83" id="Stroke-1" stroke="#FFFFFF" stroke-width="4" stroke-linecap="round" stroke-linejoin="round"></path>
                <g id="PRO" transform="translate(318.000000, 18.000000)">
                    <circle id="Oval" fill="#DB9E4B" cx="18.5" cy="18.5" r="18.5"></circle>
                    <g id="Combined-Shape">
                        <use fill="url(#linearGradient-1)" xlink:href="#path-2"></use>
                        <use fill="#F1C158" xlink:href="#path-2"></use>
                        <use fill="#FFFFFF" xlink:href="#path-2"></use>
                    </g>
                </g>
                <path d="M147.12777,30 L288.87223,30 C290.655267,30 291.30184,30.1856512 291.953691,30.5342654 C292.605543,30.8828796 293.11712,31.3944567 293.465735,32.0463086 C293.814349,32.6981604 294,33.3447329 294,35.1277704 L294,37.8722296 C294,39.6552671 293.814349,40.3018396 293.465735,40.9536914 C293.11712,41.6055433 292.605543,42.1171204 291.953691,42.4657346 C291.30184,42.8143488 290.655267,43 288.87223,43 L147.12777,43 C145.344733,43 144.69816,42.8143488 144.046309,42.4657346 C143.394457,42.1171204 142.88288,41.6055433 142.534265,40.9536914 C142.185651,40.3018396 142,39.6552671 142,37.8722296 L142,35.1277704 C142,33.3447329 142.185651,32.6981604 142.534265,32.0463086 C142.88288,31.3944567 143.394457,30.8828796 144.046309,30.5342654 C144.69816,30.1856512 145.344733,30 147.12777,30 Z" id="Rectangle" fill="#30414B"></path>
                <path d="M147.12777,53 L210.87223,53 C212.655267,53 213.30184,53.1856512 213.953691,53.5342654 C214.605543,53.8828796 215.11712,54.3944567 215.465735,55.0463086 C215.814349,55.6981604 216,56.3447329 216,58.1277704 L216,60.8722296 C216,62.6552671 215.814349,63.3018396 215.465735,63.9536914 C215.11712,64.6055433 214.605543,65.1171204 213.953691,65.4657346 C213.30184,65.8143488 212.655267,66 210.87223,66 L147.12777,66 C145.344733,66 144.69816,65.8143488 144.046309,65.4657346 C143.394457,65.1171204 142.88288,64.6055433 142.534265,63.9536914 C142.185651,63.3018396 142,62.6552671 142,60.8722296 L142,58.1277704 C142,56.3447329 142.185651,55.6981604 142.534265,55.0463086 C142.88288,54.3944567 143.394457,53.8828796 144.046309,53.5342654 C144.69816,53.1856512 145.344733,53 147.12777,53 Z" id="Rectangle" fill="#30414B"></path>
            </g>
            <g id="Group" transform="translate(66.000000, 540.000000)">
                <circle id="Oval" fill="#30414B" cx="60.5" cy="60.5" r="50.5"></circle>
                <circle id="Oval" stroke="#30414B" stroke-width="3" cx="61.5" cy="61.5" r="61.5"></circle>
                <path d="M60.7016441,38 C54.8209391,38 50.0535714,43.3066952 50.0535714,49.8526786 C50.0535714,56.3986619 54.8209391,61.7053571 60.7016441,61.7053571 C66.5823491,61.7053571 71.3482143,56.3986619 71.3482143,49.8526786 C71.3482143,43.3066952 66.5823491,38 60.7016441,38 Z M38,83 C38,71.2400925 48.0728498,61.7053571 60.5,61.7053571 C72.9271502,61.7053571 83,71.2400925 83,83" id="Stroke-1" stroke="#FFFFFF" stroke-width="4" stroke-linecap="round" stroke-linejoin="round"></path>
                <path d="M147.12777,30 L288.87223,30 C290.655267,30 291.30184,30.1856512 291.953691,30.5342654 C292.605543,30.8828796 293.11712,31.3944567 293.465735,32.0463086 C293.814349,32.6981604 294,33.3447329 294,35.1277704 L294,37.8722296 C294,39.6552671 293.814349,40.3018396 293.465735,40.9536914 C293.11712,41.6055433 292.605543,42.1171204 291.953691,42.4657346 C291.30184,42.8143488 290.655267,43 288.87223,43 L147.12777,43 C145.344733,43 144.69816,42.8143488 144.046309,42.4657346 C143.394457,42.1171204 142.88288,41.6055433 142.534265,40.9536914 C142.185651,40.3018396 142,39.6552671 142,37.8722296 L142,35.1277704 C142,33.3447329 142.185651,32.6981604 142.534265,32.0463086 C142.88288,31.3944567 143.394457,30.8828796 144.046309,30.5342654 C144.69816,30.1856512 145.344733,30 147.12777,30 Z" id="Rectangle" fill="#30414B"></path>
                <path d="M147.12777,53 L210.87223,53 C212.655267,53 213.30184,53.1856512 213.953691,53.5342654 C214.605543,53.8828796 215.11712,54.3944567 215.465735,55.0463086 C215.814349,55.6981604 216,56.3447329 216,58.1277704 L216,60.8722296 C216,62.6552671 215.814349,63.3018396 215.465735,63.9536914 C215.11712,64.6055433 214.605543,65.1171204 213.953691,65.4657346 C213.30184,65.8143488 212.655267,66 210.87223,66 L147.12777,66 C145.344733,66 144.69816,65.8143488 144.046309,65.4657346 C143.394457,65.1171204 142.88288,64.6055433 142.534265,63.9536914 C142.185651,63.3018396 142,62.6552671 142,60.8722296 L142,58.1277704 C142,56.3447329 142.185651,55.6981604 142.534265,55.0463086 C142.88288,54.3944567 143.394457,53.8828796 144.046309,53.5342654 C144.69816,53.1856512 145.344733,53 147.12777,53 Z" id="Rectangle" fill="#30414B"></path>
            </g>
            <g id="Group" transform="translate(66.000000, 686.000000)">
                <circle id="Oval" fill="#4F008C" cx="60.5" cy="60.5" r="50.5"></circle>
                <circle id="Oval" stroke="#4F008C" stroke-width="3" cx="61.5" cy="61.5" r="61.5"></circle>
                <path d="M60.7016441,38 C54.8209391,38 50.0535714,43.3066952 50.0535714,49.8526786 C50.0535714,56.3986619 54.8209391,61.7053571 60.7016441,61.7053571 C66.5823491,61.7053571 71.3482143,56.3986619 71.3482143,49.8526786 C71.3482143,43.3066952 66.5823491,38 60.7016441,38 Z M38,83 C38,71.2400925 48.0728498,61.7053571 60.5,61.7053571 C72.9271502,61.7053571 83,71.2400925 83,83" id="Stroke-1" stroke="#FFFFFF" stroke-width="4" stroke-linecap="round" stroke-linejoin="round"></path>
                <g id="PRO" transform="translate(318.000000, 18.000000)">
                    <circle id="Oval" fill="#DB9E4B" cx="18.5" cy="18.5" r="18.5"></circle>
                    <g id="Combined-Shape">
                        <use fill="url(#linearGradient-1)" xlink:href="#path-3"></use>
                        <use fill="#F1C158" xlink:href="#path-3"></use>
                        <use fill="#FFFFFF" xlink:href="#path-3"></use>
                    </g>
                </g>
                <path d="M147.12777,30 L288.87223,30 C290.655267,30 291.30184,30.1856512 291.953691,30.5342654 C292.605543,30.8828796 293.11712,31.3944567 293.465735,32.0463086 C293.814349,32.6981604 294,33.3447329 294,35.1277704 L294,37.8722296 C294,39.6552671 293.814349,40.3018396 293.465735,40.9536914 C293.11712,41.6055433 292.605543,42.1171204 291.953691,42.4657346 C291.30184,42.8143488 290.655267,43 288.87223,43 L147.12777,43 C145.344733,43 144.69816,42.8143488 144.046309,42.4657346 C143.394457,42.1171204 142.88288,41.6055433 142.534265,40.9536914 C142.185651,40.3018396 142,39.6552671 142,37.8722296 L142,35.1277704 C142,33.3447329 142.185651,32.6981604 142.534265,32.0463086 C142.88288,31.3944567 143.394457,30.8828796 144.046309,30.5342654 C144.69816,30.1856512 145.344733,30 147.12777,30 Z" id="Rectangle" fill="#30414B"></path>
                <path d="M147.12777,53 L210.87223,53 C212.655267,53 213.30184,53.1856512 213.953691,53.5342654 C214.605543,53.8828796 215.11712,54.3944567 215.465735,55.0463086 C215.814349,55.6981604 216,56.3447329 216,58.1277704 L216,60.8722296 C216,62.6552671 215.814349,63.3018396 215.465735,63.9536914 C215.11712,64.6055433 214.605543,65.1171204 213.953691,65.4657346 C213.30184,65.8143488 212.655267,66 210.87223,66 L147.12777,66 C145.344733,66 144.69816,65.8143488 144.046309,65.4657346 C143.394457,65.1171204 142.88288,64.6055433 142.534265,63.9536914 C142.185651,63.3018396 142,62.6552671 142,60.8722296 L142,58.1277704 C142,56.3447329 142.185651,55.6981604 142.534265,55.0463086 C142.88288,54.3944567 143.394457,53.8828796 144.046309,53.5342654 C144.69816,53.1856512 145.344733,53 147.12777,53 Z" id="Rectangle" fill="#30414B"></path>
            </g>
            <g id="Group" transform="translate(66.000000, 832.000000)">
                <circle id="Oval" fill="#30414B" cx="60.5" cy="60.5" r="50.5"></circle>
                <circle id="Oval" stroke="#30414B" stroke-width="3" cx="61.5" cy="61.5" r="61.5"></circle>
                <circle id="Oval" stroke="#979797" cx="60.5" cy="60.5" r="50.5"></circle>
                <path d="M60.7016441,38 C54.8209391,38 50.0535714,43.3066952 50.0535714,49.8526786 C50.0535714,56.3986619 54.8209391,61.7053571 60.7016441,61.7053571 C66.5823491,61.7053571 71.3482143,56.3986619 71.3482143,49.8526786 C71.3482143,43.3066952 66.5823491,38 60.7016441,38 Z M38,83 C38,71.2400925 48.0728498,61.7053571 60.5,61.7053571 C72.9271502,61.7053571 83,71.2400925 83,83" id="Stroke-1" stroke="#FFFFFF" stroke-width="4" stroke-linecap="round" stroke-linejoin="round"></path>
                <path d="M147.12777,30 L288.87223,30 C290.655267,30 291.30184,30.1856512 291.953691,30.5342654 C292.605543,30.8828796 293.11712,31.3944567 293.465735,32.0463086 C293.814349,32.6981604 294,33.3447329 294,35.1277704 L294,37.8722296 C294,39.6552671 293.814349,40.3018396 293.465735,40.9536914 C293.11712,41.6055433 292.605543,42.1171204 291.953691,42.4657346 C291.30184,42.8143488 290.655267,43 288.87223,43 L147.12777,43 C145.344733,43 144.69816,42.8143488 144.046309,42.4657346 C143.394457,42.1171204 142.88288,41.6055433 142.534265,40.9536914 C142.185651,40.3018396 142,39.6552671 142,37.8722296 L142,35.1277704 C142,33.3447329 142.185651,32.6981604 142.534265,32.0463086 C142.88288,31.3944567 143.394457,30.8828796 144.046309,30.5342654 C144.69816,30.1856512 145.344733,30 147.12777,30 Z" id="Rectangle" fill="#30414B"></path>
                <path d="M147.12777,53 L210.87223,53 C212.655267,53 213.30184,53.1856512 213.953691,53.5342654 C214.605543,53.8828796 215.11712,54.3944567 215.465735,55.0463086 C215.814349,55.6981604 216,56.3447329 216,58.1277704 L216,60.8722296 C216,62.6552671 215.814349,63.3018396 215.465735,63.9536914 C215.11712,64.6055433 214.605543,65.1171204 213.953691,65.4657346 C213.30184,65.8143488 212.655267,66 210.87223,66 L147.12777,66 C145.344733,66 144.69816,65.8143488 144.046309,65.4657346 C143.394457,65.1171204 142.88288,64.6055433 142.534265,63.9536914 C142.185651,63.3018396 142,62.6552671 142,60.8722296 L142,58.1277704 C142,56.3447329 142.185651,55.6981604 142.534265,55.0463086 C142.88288,54.3944567 143.394457,53.8828796 144.046309,53.5342654 C144.69816,53.1856512 145.344733,53 147.12777,53 Z" id="Rectangle" fill="#30414B"></path>
            </g>
        </g>
    </g>
</svg>