<?xml version="1.0" encoding="UTF-8"?>
<svg width="504px" height="1027px" viewBox="0 0 504 1027" version="1.1" xmlns="http://www.w3.org/2000/svg" xmlns:xlink="http://www.w3.org/1999/xlink">
    <!-- Generator: Sketch 64 (93537) - https://sketch.com -->
    <title>zadcall-add-ar</title>
    <desc>Created with Sketch.</desc>
    <defs>
        <linearGradient x1="-0.00519637437%" y1="50.0571802%" x2="99.9576612%" y2="50.0571802%" id="linearGradient-1">
            <stop stop-color="#E6AE53" offset="0%"></stop>
            <stop stop-color="#FFD75E" offset="12%"></stop>
            <stop stop-color="#FFF1D0" offset="24%"></stop>
            <stop stop-color="#FFE8AB" offset="31%"></stop>
            <stop stop-color="#FFD75E" offset="47%"></stop>
            <stop stop-color="#DB9B4D" offset="64%"></stop>
            <stop stop-color="#F2C158" offset="83%"></stop>
            <stop stop-color="#D38E49" offset="100%"></stop>
        </linearGradient>
        <path d="M27.615942,25.4710145 C27.4320234,26.6273045 27.2605316,28.9565217 26.8355304,28.9565217 L26.8355304,28.9565217 L10.9688174,28.9565217 C10.5413308,28.9565217 10.3698391,26.6273045 10.1884058,25.4710145 L10.1884058,25.4710145 Z M18.7630273,8.04347826 C20.8003621,8.04347826 20.8339304,10.5393087 19.4395567,10.862178 C19.4576319,11.6360392 20.0282923,13.3323839 20.26327,14.0652458 C22.1405101,19.9153289 25.4921712,23.4053916 30.5403202,17.1837527 C32.8823515,14.3061165 32.3168555,14.9082933 32.1076994,14.1088075 C32.0198426,13.7359366 32.1119973,13.3437308 32.3569814,13.0478761 C32.6019656,12.7520213 32.9718273,12.5862735 33.3574714,12.599522 C34.9480902,12.599522 35.2631153,15.6078433 32.6809419,15.0133539 L32.6809419,15.0133539 L29.3034591,21.7192967 C29.0994674,22.1267269 28.3687123,23.7282609 27.9529824,23.7282609 L27.9529824,23.7282609 L9.84678252,23.7282609 C9.39748435,23.7282609 9.28386872,23.1337715 9.0721305,22.7468409 C7.6261134,20.1203253 6.48221058,17.5758082 5.1110765,15.0133539 C4.25379493,15.2081004 3.22092557,15.1440391 3.22092557,13.9396855 C3.17281131,13.3008031 3.62100347,12.7299334 4.25702112,12.6199936 C4.89303877,12.5100537 5.50933946,12.8969189 5.68173682,13.5143181 C5.95028286,14.3701779 5.25826039,14.2087432 5.51647773,14.8826687 C5.80826332,15.6693422 9.54725041,20.5200681 12.4082985,20.5200681 C15.9019792,20.5200681 18.3137291,12.4278375 18.3472974,10.8673029 C17.5726453,10.6879311 17.4022219,10.1036915 17.4022219,9.39132921 L17.4022219,9.39132921 L17.4125506,9.38364185 C17.4591048,8.66349323 18.0373368,8.08967698 18.7630273,8.04347826 Z M10.1884058,14.2105981 C10.1884058,12.6751872 13.681596,13.0496236 12.0656114,15.1389346 C12.2756126,15.9276882 13.4536679,17.2105207 13.673913,17.9217284 C13.0413485,18.067958 12.8620792,18.433532 11.9298789,18.5 C11.8274393,17.4187871 11.5303645,16.4860195 11.5303645,15.2541458 C10.8235313,15.203187 10.1884058,14.8752781 10.1884058,14.2105981 Z M26.1276177,13.2717391 C28.2113028,13.2717391 27.9670613,15.1218416 26.2624593,15.2462183 C26.2624593,16.4811006 25.96479,17.4161464 25.8630228,18.5 C24.9394847,18.4333697 24.7588477,18.0669028 24.1304348,17.920316 C24.3492344,17.2073714 25.5195582,15.9147427 25.7281811,15.1307257 C25.3287445,14.5976829 25.3287445,14.7353857 25.3287445,13.9691367 C25.4091986,13.6171312 25.7243932,13.3419736 26.1276177,13.2717391 Z" id="path-2"></path>
        <path d="M27.615942,25.4710145 C27.4320234,26.6273045 27.2605316,28.9565217 26.8355304,28.9565217 L26.8355304,28.9565217 L10.9688174,28.9565217 C10.5413308,28.9565217 10.3698391,26.6273045 10.1884058,25.4710145 L10.1884058,25.4710145 Z M18.7630273,8.04347826 C20.8003621,8.04347826 20.8339304,10.5393087 19.4395567,10.862178 C19.4576319,11.6360392 20.0282923,13.3323839 20.26327,14.0652458 C22.1405101,19.9153289 25.4921712,23.4053916 30.5403202,17.1837527 C32.8823515,14.3061165 32.3168555,14.9082933 32.1076994,14.1088075 C32.0198426,13.7359366 32.1119973,13.3437308 32.3569814,13.0478761 C32.6019656,12.7520213 32.9718273,12.5862735 33.3574714,12.599522 C34.9480902,12.599522 35.2631153,15.6078433 32.6809419,15.0133539 L32.6809419,15.0133539 L29.3034591,21.7192967 C29.0994674,22.1267269 28.3687123,23.7282609 27.9529824,23.7282609 L27.9529824,23.7282609 L9.84678252,23.7282609 C9.39748435,23.7282609 9.28386872,23.1337715 9.0721305,22.7468409 C7.6261134,20.1203253 6.48221058,17.5758082 5.1110765,15.0133539 C4.25379493,15.2081004 3.22092557,15.1440391 3.22092557,13.9396855 C3.17281131,13.3008031 3.62100347,12.7299334 4.25702112,12.6199936 C4.89303877,12.5100537 5.50933946,12.8969189 5.68173682,13.5143181 C5.95028286,14.3701779 5.25826039,14.2087432 5.51647773,14.8826687 C5.80826332,15.6693422 9.54725041,20.5200681 12.4082985,20.5200681 C15.9019792,20.5200681 18.3137291,12.4278375 18.3472974,10.8673029 C17.5726453,10.6879311 17.4022219,10.1036915 17.4022219,9.39132921 L17.4022219,9.39132921 L17.4125506,9.38364185 C17.4591048,8.66349323 18.0373368,8.08967698 18.7630273,8.04347826 Z M10.1884058,14.2105981 C10.1884058,12.6751872 13.681596,13.0496236 12.0656114,15.1389346 C12.2756126,15.9276882 13.4536679,17.2105207 13.673913,17.9217284 C13.0413485,18.067958 12.8620792,18.433532 11.9298789,18.5 C11.8274393,17.4187871 11.5303645,16.4860195 11.5303645,15.2541458 C10.8235313,15.203187 10.1884058,14.8752781 10.1884058,14.2105981 Z M26.1276177,13.2717391 C28.2113028,13.2717391 27.9670613,15.1218416 26.2624593,15.2462183 C26.2624593,16.4811006 25.96479,17.4161464 25.8630228,18.5 C24.9394847,18.4333697 24.7588477,18.0669028 24.1304348,17.920316 C24.3492344,17.2073714 25.5195582,15.9147427 25.7281811,15.1307257 C25.3287445,14.5976829 25.3287445,14.7353857 25.3287445,13.9691367 C25.4091986,13.6171312 25.7243932,13.3419736 26.1276177,13.2717391 Z" id="path-3"></path>
    </defs>
    <g id="Page-1" stroke="none" stroke-width="1" fill="none" fill-rule="evenodd">
        <g id="zadcall-add-ar" transform="translate(2.000000, 2.000000)">
            <path d="M417.78,0 L81.92,0 C36.6768333,0 -1.13686838e-13,36.6768333 -1.13686838e-13,81.92 L-1.13686838e-13,940.76 C-1.13686838e-13,962.486535 8.63083236,983.323207 23.9938125,998.686188 C39.3567926,1014.04917 60.1934652,1022.68 81.92,1022.68 L417.78,1022.68 C463.023167,1022.68 499.7,986.003167 499.7,940.76 L499.7,81.92 C499.7,36.6768333 463.023167,0 417.78,0 L417.78,0 Z M472.66,508 L472.66,935.66 C472.66,950.668601 466.697856,965.062489 456.085173,975.675173 C445.472489,986.287856 431.078601,992.25 416.07,992.25 L83.63,992.25 C52.376206,992.25 27.04,966.913794 27.04,935.66 L27.04,87.05 C27.04,55.796206 52.376206,30.46 83.63,30.46 L138.72,30.46 L138.72,47.89 C138.72,52.0592032 140.37621,56.0576467 143.324281,59.0057186 C146.272353,61.9537905 150.270797,63.61 154.44,63.61 L345.22,63.61 C349.389203,63.61 353.387647,61.9537905 356.335719,59.0057186 C359.28379,56.0576467 360.94,52.0592032 360.94,47.89 L360.94,30.46 L416.03,30.46 C431.038601,30.46 445.432489,36.4221436 456.045173,47.0348273 C466.657856,57.6475109 472.62,72.0413988 472.62,87.05 L472.66,508 Z" id="Shape" stroke="#30414B" stroke-width="3.5" fill-rule="nonzero"></path>
            <g id="Group" transform="translate(247.500000, 287.000000) scale(-1, 1) translate(-247.500000, -287.000000) translate(64.000000, 143.000000)">
                <g id="Group-2" transform="translate(2.000000, 0.000000)">
                    <circle id="Oval" fill="#30414B" cx="73" cy="73" r="61"></circle>
                    <circle id="Oval" stroke="#30414B" stroke-width="3" cx="74" cy="74" r="74"></circle>
                    <path d="M73.2419729,46 C66.1851269,46 60.4642857,52.3680343 60.4642857,60.2232143 C60.4642857,68.0783943 66.1851269,74.4464286 73.2419729,74.4464286 C80.2988189,74.4464286 86.0178571,68.0783943 86.0178571,60.2232143 C86.0178571,52.3680343 80.2988189,46 73.2419729,46 Z M46,100 C46,85.8881109 58.0874197,74.4464286 73,74.4464286 C87.9125803,74.4464286 100,85.8881109 100,100" id="Stroke-1" stroke="#FFFFFF" stroke-width="4" stroke-linecap="round" stroke-linejoin="round"></path>
                </g>
                <g id="PRO" transform="translate(330.000000, 18.000000)">
                    <circle id="Oval" fill="#DB9E4B" cx="18.5" cy="18.5" r="18.5"></circle>
                    <g id="Combined-Shape">
                        <use fill="url(#linearGradient-1)" xlink:href="#path-2"></use>
                        <use fill="#F1C158" xlink:href="#path-2"></use>
                        <use fill="#FFFFFF" xlink:href="#path-2"></use>
                    </g>
                </g>
                <path d="M182.12777,30 L299.87223,30 C301.655267,30 302.30184,30.1856512 302.953691,30.5342654 C303.605543,30.8828796 304.11712,31.3944567 304.465735,32.0463086 C304.814349,32.6981604 305,33.3447329 305,35.1277704 L305,37.8722296 C305,39.6552671 304.814349,40.3018396 304.465735,40.9536914 C304.11712,41.6055433 303.605543,42.1171204 302.953691,42.4657346 C302.30184,42.8143488 301.655267,43 299.87223,43 L182.12777,43 C180.344733,43 179.69816,42.8143488 179.046309,42.4657346 C178.394457,42.1171204 177.88288,41.6055433 177.534265,40.9536914 C177.185651,40.3018396 177,39.6552671 177,37.8722296 L177,35.1277704 C177,33.3447329 177.185651,32.6981604 177.534265,32.0463086 C177.88288,31.3944567 178.394457,30.8828796 179.046309,30.5342654 C179.69816,30.1856512 180.344733,30 182.12777,30 Z" id="Rectangle" fill="#30414B"></path>
                <path d="M182.12777,53 L233.87223,53 C235.655267,53 236.30184,53.1856512 236.953691,53.5342654 C237.605543,53.8828796 238.11712,54.3944567 238.465735,55.0463086 C238.814349,55.6981604 239,56.3447329 239,58.1277704 L239,60.8722296 C239,62.6552671 238.814349,63.3018396 238.465735,63.9536914 C238.11712,64.6055433 237.605543,65.1171204 236.953691,65.4657346 C236.30184,65.8143488 235.655267,66 233.87223,66 L182.12777,66 C180.344733,66 179.69816,65.8143488 179.046309,65.4657346 C178.394457,65.1171204 177.88288,64.6055433 177.534265,63.9536914 C177.185651,63.3018396 177,62.6552671 177,60.8722296 L177,58.1277704 C177,56.3447329 177.185651,55.6981604 177.534265,55.0463086 C177.88288,54.3944567 178.394457,53.8828796 179.046309,53.5342654 C179.69816,53.1856512 180.344733,53 182.12777,53 Z" id="Rectangle" fill="#30414B"></path>
                <path d="M5.1277704,209 L360.87223,209 C362.655267,209 363.30184,209.185651 363.953691,209.534265 C364.605543,209.88288 365.11712,210.394457 365.465735,211.046309 C365.814349,211.69816 366,212.344733 366,214.12777 L366,216.87223 C366,218.655267 365.814349,219.30184 365.465735,219.953691 C365.11712,220.605543 364.605543,221.11712 363.953691,221.465735 C363.30184,221.814349 362.655267,222 360.87223,222 L5.1277704,222 C3.34473292,222 2.69816044,221.814349 2.04630859,221.465735 C1.39445674,221.11712 0.882879593,220.605543 0.534265408,219.953691 C0.185651222,219.30184 8.02470732e-17,218.655267 -1.38112041e-16,216.87223 L1.38112041e-16,214.12777 C-8.02470732e-17,212.344733 0.185651222,211.69816 0.534265408,211.046309 C0.882879593,210.394457 1.39445674,209.88288 2.04630859,209.534265 C2.69816044,209.185651 3.34473292,209 5.1277704,209 Z" id="Rectangle" fill="#30414B"></path>
                <path d="M5.1277704,242 L360.87223,242 C362.655267,242 363.30184,242.185651 363.953691,242.534265 C364.605543,242.88288 365.11712,243.394457 365.465735,244.046309 C365.814349,244.69816 366,245.344733 366,247.12777 L366,249.87223 C366,251.655267 365.814349,252.30184 365.465735,252.953691 C365.11712,253.605543 364.605543,254.11712 363.953691,254.465735 C363.30184,254.814349 362.655267,255 360.87223,255 L5.1277704,255 C3.34473292,255 2.69816044,254.814349 2.04630859,254.465735 C1.39445674,254.11712 0.882879593,253.605543 0.534265408,252.953691 C0.185651222,252.30184 8.02470732e-17,251.655267 -1.38112041e-16,249.87223 L1.38112041e-16,247.12777 C-8.02470732e-17,245.344733 0.185651222,244.69816 0.534265408,244.046309 C0.882879593,243.394457 1.39445674,242.88288 2.04630859,242.534265 C2.69816044,242.185651 3.34473292,242 5.1277704,242 Z" id="Rectangle" fill="#30414B"></path>
                <path d="M5.1277704,275 L171.87223,275 C173.655267,275 174.30184,275.185651 174.953691,275.534265 C175.605543,275.88288 176.11712,276.394457 176.465735,277.046309 C176.814349,277.69816 177,278.344733 177,280.12777 L177,282.87223 C177,284.655267 176.814349,285.30184 176.465735,285.953691 C176.11712,286.605543 175.605543,287.11712 174.953691,287.465735 C174.30184,287.814349 173.655267,288 171.87223,288 L5.1277704,288 C3.34473292,288 2.69816044,287.814349 2.04630859,287.465735 C1.39445674,287.11712 0.882879593,286.605543 0.534265408,285.953691 C0.185651222,285.30184 8.02470732e-17,284.655267 -1.38112041e-16,282.87223 L1.38112041e-16,280.12777 C-8.02470732e-17,278.344733 0.185651222,277.69816 0.534265408,277.046309 C0.882879593,276.394457 1.39445674,275.88288 2.04630859,275.534265 C2.69816044,275.185651 3.34473292,275 5.1277704,275 Z" id="Rectangle" fill="#30414B"></path>
            </g>
            <circle id="Oval" stroke="#27BB4E" stroke-width="8" fill="#FFFFFF" cx="286" cy="179" r="10"></circle>
            <path d="M84.7930242,496 L111.206976,496 C118.784885,496 121.532818,496.789018 124.303188,498.270628 C127.073559,499.752238 129.247762,501.926441 130.729372,504.696812 C132.210982,507.467182 133,510.215115 133,517.793024 L133,544.206976 C133,551.784885 132.210982,554.532818 130.729372,557.303188 C129.247762,560.073559 127.073559,562.247762 124.303188,563.729372 C121.532818,565.210982 118.784885,566 111.206976,566 L84.7930242,566 C77.2151149,566 74.4671819,565.210982 71.6968115,563.729372 C68.9264411,562.247762 66.7522383,560.073559 65.270628,557.303188 C63.7890177,554.532818 63,551.784885 63,544.206976 L63,517.793024 C63,510.215115 63.7890177,507.467182 65.270628,504.696812 C66.7522383,501.926441 68.9264411,499.752238 71.6968115,498.270628 C74.4671819,496.789018 77.2151149,496 84.7930242,496 Z" id="Rectangle" fill="#27BB4E"></path>
            <path d="M85.7287358,512.110868 C86.089437,512.237982 86.3323708,512.470267 86.5321438,512.759745 C87.8329804,514.644649 89.1319672,516.530722 90.4306458,518.417088 C90.8309625,518.99824 91.1918178,519.607476 91.6351412,520.157325 C92.375966,521.075934 92.2540367,522.005659 91.7237751,522.924999 C90.8730443,524.3996 89.8900564,525.799893 88.9177045,527.20399 C88.6721502,527.558707 88.645483,527.855646 88.8239839,528.24781 C89.6428065,530.046996 90.8348161,531.612288 92.1569248,533.093764 C94.2215539,535.406961 96.5790601,537.401863 99.3489064,538.936876 C99.9035231,539.244054 100.482803,539.502522 101.075031,539.73627 C101.37762,539.855631 101.640901,539.842612 101.939789,539.658598 C103.339433,538.797622 104.756034,537.960927 106.169242,537.119844 C106.672066,536.820419 107.210497,536.606126 107.798872,536.495249 C108.201809,536.419478 108.567289,536.470382 108.903481,536.679409 C111.727278,538.434274 114.550767,540.18987 117.369169,541.952633 C117.927948,542.302085 118.060205,542.844327 117.977429,543.431622 C117.91947,543.84251 117.776114,544.242426 117.507901,544.578567 C116.172535,546.251956 114.781061,547.877659 113.057711,549.215639 C112.403362,549.723653 111.701536,550.107041 111.009113,549.973053 C108.635884,549.896843 106.583124,549.363377 104.597572,548.565299 C100.701074,546.998837 97.3169562,544.68213 94.1267543,542.089693 C90.7330799,539.332404 87.6239587,536.309187 84.8394685,532.991371 C82.6977665,530.439453 80.8025436,527.739504 79.4639413,524.716871 C78.6235383,522.819096 78.0743167,520.857837 78.0017141,518.785263 C77.978438,518.124684 78.1931632,517.571909 78.5882389,517.05351 C79.5064856,515.848933 80.6531763,514.854261 81.8214475,513.880653 C82.4388015,513.366203 83.0738823,512.868867 83.7656888,512.445546 C84.3656243,512.078541 84.9966973,511.852839 85.7287358,512.110868 Z M101.951323,512.021081 C102.073748,512.090136 102.010647,512.248313 102.011434,512.36665 C102.015997,513.067378 102.029058,513.768549 102.0075,514.468539 C101.9968,514.812337 102.132285,514.912378 102.488543,514.910607 C104.795882,514.899541 107.103378,514.91164 109.410718,514.903672 C110.989804,514.898213 112.401619,515.327296 113.618783,516.279897 C115.1472,517.475959 115.926751,519.027477 115.977735,520.877493 C116.021795,522.474604 115.986862,524.073486 115.986862,525.67163 L115.989694,525.67163 C115.989694,527.306662 115.980725,528.941694 115.997248,530.576579 C116.000395,530.892637 115.922031,531.005958 115.565615,530.99976 C114.412181,530.980136 113.258118,530.982939 112.104685,530.998432 C111.784619,531.002711 111.681864,530.923033 111.683123,530.608893 C111.695712,527.461888 111.64756,524.313997 111.709559,521.168025 C111.738985,519.6742 110.500736,518.849085 109.260913,518.878744 C107.007548,518.932748 104.751507,518.901319 102.496568,518.887006 C102.117965,518.884646 101.993967,518.992064 102.006398,519.347666 C102.03189,520.07215 102.015525,520.797962 102.01285,521.523332 C102.012535,521.617618 102.058484,521.738759 101.958876,521.79896 C101.842746,521.869343 101.771778,521.745104 101.696089,521.692132 C99.5336762,520.176913 97.3759845,518.655496 95.2104249,517.143966 C94.954561,516.965279 94.9103434,516.866862 95.1990952,516.666337 C97.3476601,515.174431 99.4842658,513.66777 101.627953,512.169814 C101.724256,512.10253 101.812219,511.942878 101.951323,512.021081 Z" id="zadcall-request-call" fill="#FFFFFF"></path>
            <path d="M387.793024,497 L412.206976,497 C419.784885,497 422.532818,497.789018 425.303188,499.270628 C428.073559,500.752238 430.247762,502.926441 431.729372,505.696812 C433.210982,508.467182 434,511.215115 434,518.793024 L434,543.206976 C434,550.784885 433.210982,553.532818 431.729372,556.303188 C430.247762,559.073559 428.073559,561.247762 425.303188,562.729372 C422.532818,564.210982 419.784885,565 412.206976,565 L387.793024,565 C380.215115,565 377.467182,564.210982 374.696812,562.729372 C371.926441,561.247762 369.752238,559.073559 368.270628,556.303188 C366.789018,553.532818 366,550.784885 366,543.206976 L366,518.793024 C366,511.215115 366.789018,508.467182 368.270628,505.696812 C369.752238,502.926441 371.926441,500.752238 374.696812,499.270628 C377.467182,497.789018 380.215115,497 387.793024,497 Z" id="Rectangle" fill="#4F008C"></path>
            <path d="M389.851879,519.741208 C390.572617,521.619543 391.29665,523.496575 392.006479,525.379044 C392.252172,526.0305 392.148739,526.657196 391.786566,527.246369 C391.559975,527.614945 391.340819,527.988239 391.120328,528.360634 C391.075313,528.436668 391.018097,528.49302 390.941424,528.538047 C390.40333,528.853956 389.927529,529.240417 389.583256,529.774093 C389.273045,530.254967 389.110793,530.785946 389.060123,531.353639 C388.984029,532.20637 389.132656,533.031823 389.37394,533.843346 C389.735712,535.060249 390.283512,536.194601 390.89859,537.298037 C391.42622,538.244552 391.999132,539.161453 392.665994,540.015486 C393.269941,540.788902 393.931682,541.50354 394.754428,542.047686 C395.416303,542.485466 396.130896,542.763313 396.936322,542.738598 C397.534525,542.720173 398.088069,542.534537 398.60568,542.24222 C398.783427,542.14183 398.959081,542.094646 399.162786,542.096623 C399.570686,542.100578 399.978809,542.073885 400.386709,542.076491 C401.042662,542.080625 401.596294,542.330477 402.011319,542.846043 C403.243345,544.376518 404.459921,545.919755 405.698983,547.444343 C406.095573,547.932272 406.062446,548.535017 405.818757,548.878697 C405.670353,549.088015 405.495011,549.278055 405.329464,549.474746 C404.921386,549.959619 404.508855,550.440763 404.105363,550.929501 C404.011414,551.043328 403.897339,551.117699 403.7728,551.183622 C402.911317,551.639736 401.995512,551.900372 401.025074,551.976496 C400.223522,552.039363 399.432834,551.973081 398.646955,551.813958 C397.452776,551.572195 396.334646,551.1239 395.265316,550.544973 C393.719383,549.70806 392.341312,548.639945 391.072285,547.423852 C389.399097,545.820533 387.970623,544.014548 386.719495,542.061976 C385.822614,540.662314 385.028498,539.205626 384.34485,537.688273 C383.810808,536.503096 383.349923,535.289923 382.976263,534.042868 C382.709999,533.154412 382.487682,532.255531 382.322892,531.342764 C382.11843,530.210389 381.997187,529.069161 382.000083,527.991834 C381.996697,526.842113 382.096835,525.778896 382.344576,524.732486 C382.651359,523.436404 383.163137,522.236577 383.995501,521.189942 C384.52322,520.526488 385.149608,519.976815 385.877648,519.547124 C386.001696,519.473966 386.148453,519.474236 386.285325,519.448127 C387.057089,519.300958 387.830635,519.162955 388.602621,519.016954 C389.10505,518.921956 389.657569,519.23472 389.851879,519.741208 Z M402.842479,517.078713 C405.909392,518.007616 408.529926,519.724946 410.675389,522.267019 C412.515536,524.447555 413.781654,526.96826 414.468412,529.826069 C414.819119,531.285732 415.000083,532.767434 414.999714,534.609717 C415.010018,535.833465 414.804106,537.361258 414.442562,538.865958 C414.244289,539.691085 413.506276,540.156016 412.744811,539.952297 C412.026962,539.760365 411.590799,538.962547 411.778056,538.142786 C412.100071,536.732951 412.2955,535.306154 412.234651,533.853103 C412.047127,529.379728 410.373361,525.683473 407.196119,522.796534 C405.674521,521.414008 403.928979,520.484626 402.012347,519.918315 C401.42517,519.744781 401.023918,519.19476 401.001354,518.581017 C400.97657,517.905277 401.315641,517.334942 401.885318,517.094715 C402.202447,516.961043 402.520376,516.981166 402.842479,517.078713 Z M400.63823,525.060378 C403.724109,526.016174 405.920272,528.054261 407.209629,531.174212 C407.746296,532.472961 407.999396,533.838969 407.999315,535.426301 C408.011164,536.187404 407.885179,537.099669 407.666014,537.997595 C407.4936,538.703645 406.796931,539.13989 406.153623,538.95911 C405.467514,538.76621 405.070373,538.07211 405.24182,537.35155 C405.519585,536.184161 405.597368,535.005163 405.369982,533.822325 C404.931813,531.543027 403.790931,529.763052 401.931375,528.511589 C401.32716,528.104961 400.669827,527.821329 399.984604,527.610419 C399.262222,527.388157 398.862906,526.703531 399.043138,525.980923 C399.225144,525.251401 399.918589,524.837433 400.63823,525.060378 Z M405.380028,510.198355 C408.708862,511.140097 411.68167,512.695261 414.266487,514.904056 C417.295682,517.492542 419.461935,520.628377 420.776618,524.289597 C421.553722,526.453665 421.955415,528.684602 421.997914,531.57661 C422.027739,532.999631 421.74907,534.988423 421.214193,536.947545 C421.014279,537.679736 420.220772,538.143212 419.475822,537.959877 C418.66032,537.759182 418.19758,537.04807 418.403087,536.287803 C418.965551,534.207431 419.205262,532.098364 419.043093,529.952452 C418.853617,527.445272 418.1795,525.059518 417.006202,522.808388 C415.368859,519.666972 413.011545,517.120999 409.927455,515.190928 C408.132232,514.067444 406.18826,513.254567 404.117257,512.712709 C403.408003,512.527071 402.944891,511.936234 403.005378,511.292611 C403.071923,510.583625 403.586668,510.082154 404.336371,510.006339 C404.702462,509.969318 405.040965,510.102436 405.380028,510.198355 Z" id="zadcall-calls" fill="#FFFFFF"></path>
            <path d="M314,258 L402,258 C411.941125,258 420,266.058875 420,276 C420,285.941125 411.941125,294 402,294 L314,294 C304.058875,294 296,285.941125 296,276 C296,266.058875 304.058875,258 314,258 Z" id="Rectangle" fill="#DB9E4B"></path>
            <path d="M319,272 L398,272 C400.209139,272 402,273.790861 402,276 C402,278.209139 400.209139,280 398,280 L319,280 C316.790861,280 315,278.209139 315,276 C315,273.790861 316.790861,272 319,272 Z" id="Rectangle" fill="#FFFFFF"></path>
            <g id="search" transform="translate(246.000000, 709.000000) scale(-1, 1) translate(-246.000000, -709.000000) translate(67.000000, 679.000000)">
                <path d="M21.7930242,-8.80464262e-16 L248.206976,8.80464262e-16 C255.784885,-5.11575092e-16 258.532818,0.789017695 261.303188,2.27062798 C264.073559,3.75223827 266.247762,5.92644115 267.729372,8.69681152 C269.210982,11.4671819 270,14.2151149 270,21.7930242 L270,38.2069758 C270,45.7848851 269.210982,48.5328181 267.729372,51.3031885 C266.247762,54.0735589 264.073559,56.2477617 261.303188,57.729372 C258.532818,59.2109823 255.784885,60 248.206976,60 L21.7930242,60 C14.2151149,60 11.4671819,59.2109823 8.69681152,57.729372 C5.92644115,56.2477617 3.75223827,54.0735589 2.27062798,51.3031885 C0.789017695,48.5328181 3.41050061e-16,45.7848851 -5.86976174e-16,38.2069758 L5.86976174e-16,21.7930242 C-3.41050061e-16,14.2151149 0.789017695,11.4671819 2.27062798,8.69681152 C3.75223827,5.92644115 5.92644115,3.75223827 8.69681152,2.27062798 C11.4671819,0.789017695 14.2151149,5.11575092e-16 21.7930242,-8.80464262e-16 Z" id="Rectangle" fill="#30414B"></path>
                <path d="M319.793024,-8.80464262e-16 L336.206976,8.80464262e-16 C343.784885,-5.11575092e-16 346.532818,0.789017695 349.303188,2.27062798 C352.073559,3.75223827 354.247762,5.92644115 355.729372,8.69681152 C357.210982,11.4671819 358,14.2151149 358,21.7930242 L358,38.2069758 C358,45.7848851 357.210982,48.5328181 355.729372,51.3031885 C354.247762,54.0735589 352.073559,56.2477617 349.303188,57.729372 C346.532818,59.2109823 343.784885,60 336.206976,60 L319.793024,60 C312.215115,60 309.467182,59.2109823 306.696812,57.729372 C303.926441,56.2477617 301.752238,54.0735589 300.270628,51.3031885 C298.789018,48.5328181 298,45.7848851 298,38.2069758 L298,21.7930242 C298,14.2151149 298.789018,11.4671819 300.270628,8.69681152 C301.752238,5.92644115 303.926441,3.75223827 306.696812,2.27062798 C309.467182,0.789017695 312.215115,5.11575092e-16 319.793024,-8.80464262e-16 Z" id="Rectangle" fill="#4F008C"></path>
                <path d="M341.561198,40.4315029 L336.461928,35.3472306 C338.107169,33.2512128 338.999879,30.6628837 338.996565,27.9982826 C338.996565,21.3718141 333.624751,16 326.998283,16 C320.371814,16 315,21.3718141 315,27.9982826 C315,34.624751 320.371814,39.9965651 326.998283,39.9965651 C329.662884,39.9998787 332.251213,39.1071693 334.347231,37.4619279 L339.431503,42.561198 C339.713112,42.8451264 340.096451,43.004832 340.49635,43.004832 C340.89625,43.004832 341.279588,42.8451264 341.561198,42.561198 C341.845126,42.2795884 342.004832,41.8962495 342.004832,41.4963504 C342.004832,41.0964514 341.845126,40.7131125 341.561198,40.4315029 Z M317.999571,27.9982826 C317.999571,23.0284312 322.028431,18.9995706 326.998283,18.9995706 C331.968134,18.9995706 335.996994,23.0284312 335.996994,27.9982826 C335.996994,32.9681339 331.968134,36.9969945 326.998283,36.9969945 C322.028431,36.9969945 317.999571,32.9681339 317.999571,27.9982826 Z" id="Shape" stroke="#FFFFFF" stroke-width="2" fill="#FFFFFF" fill-rule="nonzero" transform="translate(328.502416, 29.502416) scale(-1, 1) translate(-328.502416, -29.502416) "></path>
            </g>
            <g id="Group" transform="translate(246.500000, 867.500000) scale(-1, 1) translate(-246.500000, -867.500000) translate(69.000000, 806.000000)">
                <circle id="Oval" fill="#4F008C" cx="60.5" cy="60.5" r="50.5"></circle>
                <circle id="Oval" stroke="#4F008C" stroke-width="3" cx="61.5" cy="61.5" r="61.5"></circle>
                <path d="M60.7016441,38 C54.8209391,38 50.0535714,43.3066952 50.0535714,49.8526786 C50.0535714,56.3986619 54.8209391,61.7053571 60.7016441,61.7053571 C66.5823491,61.7053571 71.3482143,56.3986619 71.3482143,49.8526786 C71.3482143,43.3066952 66.5823491,38 60.7016441,38 Z M38,83 C38,71.2400925 48.0728498,61.7053571 60.5,61.7053571 C72.9271502,61.7053571 83,71.2400925 83,83" id="Stroke-1" stroke="#FFFFFF" stroke-width="4" stroke-linecap="round" stroke-linejoin="round"></path>
                <g id="PRO" transform="translate(318.000000, 18.000000)">
                    <circle id="Oval" fill="#DB9E4B" cx="18.5" cy="18.5" r="18.5"></circle>
                    <g id="Combined-Shape">
                        <use fill="url(#linearGradient-1)" xlink:href="#path-3"></use>
                        <use fill="#F1C158" xlink:href="#path-3"></use>
                        <use fill="#FFFFFF" xlink:href="#path-3"></use>
                    </g>
                </g>
                <path d="M147.12777,30 L288.87223,30 C290.655267,30 291.30184,30.1856512 291.953691,30.5342654 C292.605543,30.8828796 293.11712,31.3944567 293.465735,32.0463086 C293.814349,32.6981604 294,33.3447329 294,35.1277704 L294,37.8722296 C294,39.6552671 293.814349,40.3018396 293.465735,40.9536914 C293.11712,41.6055433 292.605543,42.1171204 291.953691,42.4657346 C291.30184,42.8143488 290.655267,43 288.87223,43 L147.12777,43 C145.344733,43 144.69816,42.8143488 144.046309,42.4657346 C143.394457,42.1171204 142.88288,41.6055433 142.534265,40.9536914 C142.185651,40.3018396 142,39.6552671 142,37.8722296 L142,35.1277704 C142,33.3447329 142.185651,32.6981604 142.534265,32.0463086 C142.88288,31.3944567 143.394457,30.8828796 144.046309,30.5342654 C144.69816,30.1856512 145.344733,30 147.12777,30 Z" id="Rectangle" fill="#30414B"></path>
                <path d="M147.12777,53 L210.87223,53 C212.655267,53 213.30184,53.1856512 213.953691,53.5342654 C214.605543,53.8828796 215.11712,54.3944567 215.465735,55.0463086 C215.814349,55.6981604 216,56.3447329 216,58.1277704 L216,60.8722296 C216,62.6552671 215.814349,63.3018396 215.465735,63.9536914 C215.11712,64.6055433 214.605543,65.1171204 213.953691,65.4657346 C213.30184,65.8143488 212.655267,66 210.87223,66 L147.12777,66 C145.344733,66 144.69816,65.8143488 144.046309,65.4657346 C143.394457,65.1171204 142.88288,64.6055433 142.534265,63.9536914 C142.185651,63.3018396 142,62.6552671 142,60.8722296 L142,58.1277704 C142,56.3447329 142.185651,55.6981604 142.534265,55.0463086 C142.88288,54.3944567 143.394457,53.8828796 144.046309,53.5342654 C144.69816,53.1856512 145.344733,53 147.12777,53 Z" id="Rectangle" fill="#30414B"></path>
            </g>
        </g>
    </g>
</svg>