<?xml version="1.0" encoding="UTF-8"?>
<svg width="504px" height="1027px" viewBox="0 0 504 1027" version="1.1" xmlns="http://www.w3.org/2000/svg" xmlns:xlink="http://www.w3.org/1999/xlink">
    <!-- Generator: Sketch 64 (93537) - https://sketch.com -->
    <title>zadcall-call-en</title>
    <desc>Created with Sketch.</desc>
    <g id="Page-1" stroke="none" stroke-width="1" fill="none" fill-rule="evenodd">
        <g id="zadcall-call-en" transform="translate(2.000000, 2.000000)">
            <path d="M417.78,0 L81.92,0 C36.6768333,0 0,36.6768333 0,81.92 L0,940.76 C0,962.486535 8.63083236,983.323207 23.9938125,998.686188 C39.3567926,1014.04917 60.1934652,1022.68 81.92,1022.68 L417.78,1022.68 C463.023167,1022.68 499.7,986.003167 499.7,940.76 L499.7,81.92 C499.7,36.6768333 463.023167,0 417.78,0 L417.78,0 Z M472.66,508 L472.66,935.66 C472.66,950.668601 466.697856,965.062489 456.085173,975.675173 C445.472489,986.287856 431.078601,992.25 416.07,992.25 L83.63,992.25 C52.376206,992.25 27.04,966.913794 27.04,935.66 L27.04,87.05 C27.04,55.796206 52.376206,30.46 83.63,30.46 L138.72,30.46 L138.72,47.89 C138.72,52.0592032 140.37621,56.0576467 143.324281,59.0057186 C146.272353,61.9537905 150.270797,63.61 154.44,63.61 L345.22,63.61 C349.389203,63.61 353.387647,61.9537905 356.335719,59.0057186 C359.28379,56.0576467 360.94,52.0592032 360.94,47.89 L360.94,30.46 L416.03,30.46 C431.038601,30.46 445.432489,36.4221436 456.045173,47.0348273 C466.657856,57.6475109 472.62,72.0413988 472.62,87.05 L472.66,508 Z" id="Shape" stroke="#30414B" stroke-width="3.5" fill-rule="nonzero"></path>
            <g id="zadcall-logo" transform="translate(178.000000, 169.000000)">
                <path d="M21.7140427,6.16905868 L21.9511399,6.17043626 C22.9119335,6.20336272 23.8660742,6.56694891 24.6322697,7.27012406 C26.3434581,8.8408276 26.4654284,11.5103818 24.9053169,13.2328819 L24.9053169,13.2328819 L13.7134298,25.5434696 L21.7119118,25.5585377 C24.0276849,25.5621652 25.9021472,27.4551573 25.8985435,29.7859597 C25.8949399,32.1170411 24.0146563,34.0038944 21.6986059,33.999994 L21.6986059,33.999994 L4.50771869,33.9681776 C3.39723422,34.0518889 2.25597996,33.6969529 1.36809136,32.8818836 C-0.343374216,31.3111801 -0.465344552,28.6419049 1.09504413,26.9194048 L1.09504413,26.9194048 L18.7086694,7.54497625 C19.5705007,6.5934575 20.76581,6.12997579 21.9511399,6.17043626 Z M7.90201453,6 C10.2998404,6 12.2621768,7.97502924 12.2621768,10.3889849 C12.2621768,12.8029405 10.2998404,14.7779698 7.90201453,14.7779698 L4.3604395,14.7779698 C1.96233638,14.7779698 8.70414851e-14,12.8029405 8.70414851e-14,10.3889849 C8.70414851e-14,7.97502924 1.96233638,6 4.3604395,6 L7.90201453,6 Z" id="Combined-Shape" fill="#3B4355"></path>
                <path d="M52.8970228,33 C53.486637,33 53.9905514,32.7903125 54.4087661,32.3709375 C54.8269808,31.9515625 55.0360881,31.44625 55.0360881,30.855 L55.0360881,30.855 L55.0360881,21.45 C55.0360881,18.26 53.9117077,15.5375 51.6629467,13.2825 C49.3867618,11.0275 46.6717942,9.9 43.5180441,9.9 C40.33687,9.9 37.6219025,11.0275 35.3731415,13.2825 C33.1243805,15.5375 32,18.26 32,21.45 C32,24.64 33.1243805,27.3625 35.3731415,29.6175 C37.6219025,31.8725 40.33687,33 43.5180441,33 C44.8892398,33 46.1781638,32.78 47.384816,32.34 C48.5914682,31.9 49.7089928,31.2675 50.7373896,30.4425 L50.7373896,30.4425 L50.7373896,30.855 C50.7373896,31.44625 50.9464969,31.9515625 51.3647116,32.3709375 C51.7829263,32.7903125 52.2936967,33 52.8970228,33 Z M43.5180441,28.689375 C42.5033592,28.689375 41.5572342,28.496875 40.6796689,28.111875 C39.8021037,27.726875 39.04109,27.2078125 38.396628,26.5546875 C37.7521661,25.9015625 37.2413957,25.135 36.8643168,24.255 C36.487238,23.375 36.2986986,22.44 36.2986986,21.45 C36.2986986,20.46 36.487238,19.525 36.8643168,18.645 C37.2413957,17.765 37.7521661,16.9984375 38.396628,16.3453125 C39.04109,15.6921875 39.8021037,15.173125 40.6796689,14.788125 C41.5572342,14.403125 42.5033592,14.210625 43.5180441,14.210625 C44.5190169,14.210625 45.458286,14.403125 46.3358513,14.788125 C47.2134165,15.173125 47.9778582,15.695625 48.6291761,16.355625 C49.2804941,17.015625 49.7946925,17.7821875 50.1717713,18.6553125 C50.5488501,19.5284375 50.7373896,20.46 50.7373896,21.45 C50.7373896,22.44 50.5488501,23.3715625 50.1717713,24.2446875 C49.7946925,25.1178125 49.2804941,25.884375 48.6291761,26.544375 C47.9778582,27.204375 47.2134165,27.726875 46.3358513,28.111875 C45.458286,28.496875 44.5190169,28.689375 43.5180441,28.689375 Z M68.2273322,33 C71.3810824,33 74.0960499,31.8725 76.3722348,29.6175 C78.6209958,27.39 79.7453763,24.6675 79.7453763,21.45 L79.7453763,21.45 L79.7453763,2.145 C79.7453763,1.52625 79.536269,1.0140625 79.1180543,0.6084375 C78.6998396,0.2028125 78.1890692,0 77.5857431,0 C76.968705,0 76.4579346,0.2028125 76.0534318,0.6084375 C75.6489291,1.0140625 75.4466777,1.52625 75.4466777,2.145 L75.4466777,2.145 L75.4466777,12.436875 C73.3624602,10.745625 70.9560117,9.9 68.2273322,9.9 C65.0461582,9.9 62.3311906,11.0275 60.0824297,13.2825 C57.8336687,15.5375 56.7092882,18.26 56.7092882,21.45 C56.7092882,24.64 57.8336687,27.3625 60.0824297,29.6175 C62.3311906,31.8725 65.0461582,33 68.2273322,33 Z M68.2273322,28.689375 C67.2126474,28.689375 66.2665224,28.496875 65.3889571,28.111875 C64.5113918,27.726875 63.7503782,27.2078125 63.1059162,26.5546875 C62.4614542,25.9015625 61.9506838,25.135 61.573605,24.255 C61.1965262,23.375 61.0079868,22.44 61.0079868,21.45 C61.0079868,20.46 61.1965262,19.525 61.573605,18.645 C61.9506838,17.765 62.4614542,16.9984375 63.1059162,16.3453125 C63.7503782,15.6921875 64.5113918,15.173125 65.3889571,14.788125 C66.2665224,14.403125 67.2126474,14.210625 68.2273322,14.210625 C69.2283051,14.210625 70.1675742,14.403125 71.0451395,14.788125 C71.9227047,15.173125 72.6871463,15.695625 73.3384643,16.355625 C73.9897823,17.015625 74.5039807,17.7821875 74.8810595,18.6553125 C75.2581383,19.5284375 75.4466777,20.46 75.4466777,21.45 C75.4466777,22.44 75.2581383,23.3715625 74.8810595,24.2446875 C74.5039807,25.1178125 73.9897823,25.884375 73.3384643,26.544375 C72.6871463,27.204375 71.9227047,27.726875 71.0451395,28.111875 C70.1675742,28.496875 69.2283051,28.689375 68.2273322,28.689375 Z M92.8954845,33 C95.7749956,33 98.2774278,32.065 100.402781,30.195 C100.855276,29.74125 101.081523,29.211875 101.081523,28.606875 C101.081523,27.988125 100.879272,27.4759375 100.474769,27.0703125 C100.070266,26.6646875 99.5594958,26.461875 98.9424577,26.461875 C98.4214033,26.475625 97.9689087,26.626875 97.5849739,26.915625 C96.8993761,27.506875 96.1726423,27.9503125 95.4047727,28.2459375 C94.6369031,28.5415625 93.8004737,28.689375 92.8954845,28.689375 C91.8945117,28.689375 90.9552426,28.5003125 90.0776773,28.1221875 C89.2001121,27.7440625 88.4322425,27.2284375 87.7740685,26.5753125 C87.1158946,25.9221875 86.5982682,25.155625 86.2211894,24.275625 C85.8441105,23.395625 85.6555711,22.45375 85.6555711,21.45 C85.6555711,20.44625 85.8441105,19.504375 86.2211894,18.624375 C86.5982682,17.744375 87.1158946,16.9778125 87.7740685,16.3246875 C88.4322425,15.6715625 89.2001121,15.1559375 90.0776773,14.7778125 C90.9552426,14.3996875 91.8945117,14.210625 92.8954845,14.210625 C93.8004737,14.210625 94.6369031,14.361875 95.4047727,14.664375 C96.1726423,14.966875 96.906232,15.41375 97.6055419,16.005 C98.0169006,16.335 98.4831071,16.5 99.0041615,16.5 C99.6211996,16.5 100.13197,16.29375 100.536473,15.88125 C100.940975,15.46875 101.143227,14.953125 101.143227,14.334375 C101.143227,13.688125 100.896412,13.145 100.402781,12.705 C98.2911397,10.835 95.7887075,9.9 92.8954845,9.9 C89.7143105,9.9 86.9993429,11.0275 84.750582,13.2825 C82.501821,15.5375 81.3774405,18.26 81.3774405,21.45 C81.3774405,24.64 82.501821,27.3625 84.750582,29.6175 C86.9993429,31.8725 89.7143105,33 92.8954845,33 Z M123.734018,33 C124.323632,33 124.827546,32.7903125 125.245761,32.3709375 C125.663976,31.9515625 125.873083,31.44625 125.873083,30.855 L125.873083,30.855 L125.873083,21.45 C125.873083,18.26 124.748702,15.5375 122.499941,13.2825 C120.223757,11.0275 117.508789,9.9 114.355039,9.9 C111.173865,9.9 108.458897,11.0275 106.210136,13.2825 C103.961375,15.5375 102.836995,18.26 102.836995,21.45 C102.836995,24.64 103.961375,27.3625 106.210136,29.6175 C108.458897,31.8725 111.173865,33 114.355039,33 C115.726235,33 117.015159,32.78 118.221811,32.34 C119.428463,31.9 120.545988,31.2675 121.574384,30.4425 L121.574384,30.4425 L121.574384,30.855 C121.574384,31.44625 121.783492,31.9515625 122.201706,32.3709375 C122.619921,32.7903125 123.130691,33 123.734018,33 Z M114.355039,28.689375 C113.340354,28.689375 112.394229,28.496875 111.516664,28.111875 C110.639098,27.726875 109.878085,27.2078125 109.233623,26.5546875 C108.589161,25.9015625 108.07839,25.135 107.701312,24.255 C107.324233,23.375 107.135693,22.44 107.135693,21.45 C107.135693,20.46 107.324233,19.525 107.701312,18.645 C108.07839,17.765 108.589161,16.9984375 109.233623,16.3453125 C109.878085,15.6921875 110.639098,15.173125 111.516664,14.788125 C112.394229,14.403125 113.340354,14.210625 114.355039,14.210625 C115.356012,14.210625 116.295281,14.403125 117.172846,14.788125 C118.050411,15.173125 118.814853,15.695625 119.466171,16.355625 C120.117489,17.015625 120.631687,17.7821875 121.008766,18.6553125 C121.385845,19.5284375 121.574384,20.46 121.574384,21.45 C121.574384,22.44 121.385845,23.3715625 121.008766,24.2446875 C120.631687,25.1178125 120.117489,25.884375 119.466171,26.544375 C118.814853,27.204375 118.050411,27.726875 117.172846,28.111875 C116.295281,28.496875 115.356012,28.689375 114.355039,28.689375 Z M132.605995,33 C133.195609,33 133.699524,32.7903125 134.117738,32.3709375 C134.535953,31.9515625 134.745061,31.44625 134.745061,30.855 C134.745061,30.25 134.535953,29.7378125 134.117738,29.3184375 C133.699524,28.8990625 133.195609,28.689375 132.605995,28.689375 L132.605995,28.689375 L131.618734,28.689375 L131.618734,2.165625 C131.618734,1.560625 131.416483,1.0484375 131.01198,0.6290625 C130.607477,0.2096875 130.096707,0 129.479669,0 C128.862631,0 128.35186,0.2096875 127.947358,0.6290625 C127.542855,1.0484375 127.340604,1.560625 127.340604,2.165625 L127.340604,2.165625 L127.340604,30.855 C127.340604,31.44625 127.546283,31.9515625 127.957642,32.3709375 C128.369,32.7903125 128.869487,33 129.459101,33 L129.459101,33 L132.605995,33 Z M140.860935,33 C141.450549,33 141.954463,32.7903125 142.372678,32.3709375 C142.790893,31.9515625 143,31.44625 143,30.855 C143,30.25 142.790893,29.7378125 142.372678,29.3184375 C141.954463,28.8990625 141.450549,28.689375 140.860935,28.689375 L140.860935,28.689375 L139.873674,28.689375 L139.873674,2.165625 C139.873674,1.560625 139.671422,1.0484375 139.26692,0.6290625 C138.862417,0.2096875 138.351646,0 137.734608,0 C137.11757,0 136.6068,0.2096875 136.202297,0.6290625 C135.797794,1.0484375 135.595543,1.560625 135.595543,2.165625 L135.595543,2.165625 L135.595543,30.855 C135.595543,31.44625 135.801222,31.9515625 136.212581,32.3709375 C136.62394,32.7903125 137.124426,33 137.71404,33 L137.71404,33 L140.860935,33 Z" id="zadcall" fill="#3A4755" fill-rule="nonzero"></path>
            </g>
            <g id="End" transform="translate(107.000000, 821.000000)">
                <circle id="Oval" fill="#DA2C64" cx="40" cy="40" r="40"></circle>
                <path d="M30.8110617,24.8055597 C33.0785111,27.3280527 34.9913381,30.0842511 34.9913381,30.0842511 C34.9913381,30.0842511 36.5673247,32.2490734 35.174746,33.6507971 C34.2561825,34.5749491 33.0023028,36.7763514 33.650581,37.7147289 C34.2988592,38.6531065 42.2875158,46.3516637 42.2875158,46.3516637 C42.2875158,46.3516637 43.2015067,47.1508342 43.8116808,46.8597187 C44.4218548,46.5686032 47.3675576,44.8269907 47.3675576,44.8269907 C47.3675576,44.8269907 48.5848574,44.4159742 49.9078326,45.3355537 C51.2435091,46.2637702 55.3587545,48.9925335 55.3587545,48.9925335 C55.3587545,48.9925335 56.5303293,50.4674172 55.7088044,51.7695621 C54.8872795,53.071199 52.3205857,55.6460217 52.3205857,55.6460217 C52.3205857,55.6460217 51.2999032,56.3364684 48.9892691,55.7887851 C46.6796512,55.2411018 41.2785186,53.9526744 33.8761574,46.5543777 C27.0311326,39.7118931 24.0209067,30.5033964 24.0209067,30.5033964 C24.0209067,30.5033964 23.8024431,28.8994668 24.7779087,27.4713242 C25.7538823,26.0431817 28.6396346,22.3892502 30.8110617,24.8055597 L30.8110617,24.8055597 Z" id="Shape-Copy" fill="#FFFFFF" transform="translate(40.000508, 40.000000) rotate(-225.000000) translate(-40.000508, -40.000000) "></path>
            </g>
            <g id="End-Copy" transform="translate(337.000000, 821.000000)">
                <circle id="Oval" fill="#21D063" cx="40" cy="40" r="40"></circle>
                <path d="M30.8110617,24.8055597 C33.0785111,27.3280527 34.9913381,30.0842511 34.9913381,30.0842511 C34.9913381,30.0842511 36.5673247,32.2490734 35.174746,33.6507971 C34.2561825,34.5749491 33.0023028,36.7763514 33.650581,37.7147289 C34.2988592,38.6531065 42.2875158,46.3516637 42.2875158,46.3516637 C42.2875158,46.3516637 43.2015067,47.1508342 43.8116808,46.8597187 C44.4218548,46.5686032 47.3675576,44.8269907 47.3675576,44.8269907 C47.3675576,44.8269907 48.5848574,44.4159742 49.9078326,45.3355537 C51.2435091,46.2637702 55.3587545,48.9925335 55.3587545,48.9925335 C55.3587545,48.9925335 56.5303293,50.4674172 55.7088044,51.7695621 C54.8872795,53.071199 52.3205857,55.6460217 52.3205857,55.6460217 C52.3205857,55.6460217 51.2999032,56.3364684 48.9892691,55.7887851 C46.6796512,55.2411018 41.2785186,53.9526744 33.8761574,46.5543777 C27.0311326,39.7118931 24.0209067,30.5033964 24.0209067,30.5033964 C24.0209067,30.5033964 23.8024431,28.8994668 24.7779087,27.4713242 C25.7538823,26.0431817 28.6396346,22.3892502 30.8110617,24.8055597 L30.8110617,24.8055597 Z" id="Shape" fill="#FFFFFF" transform="translate(40.000508, 40.000000) rotate(-361.000000) translate(-40.000508, -40.000000) "></path>
            </g>
            <g id="Avatar" transform="translate(94.000000, 355.000000)" stroke="#4F008C">
                <circle id="Oval" stroke-opacity="0.144312719" stroke-width="24" cx="156" cy="156" r="156"></circle>
                <circle id="Oval" stroke-width="25" fill="#FFFFFF" cx="156" cy="156" r="111.5"></circle>
                <path d="M157.122856,109 C138.958012,109 124.232143,125.391792 124.232143,145.611607 C124.232143,165.831422 138.958012,182.223214 157.122856,182.223214 C175.287701,182.223214 190.008929,165.831422 190.008929,145.611607 C190.008929,125.391792 175.287701,109 157.122856,109 Z M87,248 C87,211.674952 118.113914,182.223214 156.5,182.223214 C194.886086,182.223214 226,211.674952 226,248" id="Stroke-1" stroke-width="16" stroke-linecap="round" stroke-linejoin="round"></path>
            </g>
        </g>
    </g>
</svg>